<?xml version="1.0" encoding="UTF-8" ?>
<svg version="1.1" width="54" height="18" xmlns="http://www.w3.org/2000/svg" shape-rendering="crispEdges">
<rect x="2" y="1" width="1" height="1" fill="#D6C7BD" />
<rect x="3" y="1" width="1" height="1" fill="#D6C7BD" />
<rect x="4" y="1" width="1" height="1" fill="#D6C7BD" />
<rect x="5" y="1" width="1" height="1" fill="#D6C7BD" />
<rect x="6" y="1" width="1" height="1" fill="#D6C7BD" />
<rect x="7" y="1" width="1" height="1" fill="#D6C7BD" />
<rect x="8" y="1" width="1" height="1" fill="#D6C7BD" />
<rect x="9" y="1" width="1" height="1" fill="#D6C7BD" />
<rect x="10" y="1" width="1" height="1" fill="#D6C7BD" />
<rect x="11" y="1" width="1" height="1" fill="#D6C7BD" />
<rect x="12" y="1" width="1" height="1" fill="#D6C7BD" />
<rect x="13" y="1" width="1" height="1" fill="#D6C7BD" />
<rect x="14" y="1" width="1" height="1" fill="#D6C7BD" />
<rect x="15" y="1" width="1" height="1" fill="#D6C7BD" />
<rect x="16" y="1" width="1" height="1" fill="#D6C7BD" />
<rect x="17" y="1" width="1" height="1" fill="#D6C7BD" />
<rect x="39" y="1" width="1" height="1" fill="#D6C7BD" />
<rect x="41" y="1" width="1" height="1" fill="#D6C7BD" />
<rect x="42" y="1" width="1" height="1" fill="#D6C7BD" />
<rect x="43" y="1" width="1" height="1" fill="#D6C7BD" />
<rect x="44" y="1" width="1" height="1" fill="#D6C7BD" />
<rect x="45" y="1" width="1" height="1" fill="#D6C7BD" />
<rect x="46" y="1" width="1" height="1" fill="#D6C7BD" />
<rect x="47" y="1" width="1" height="1" fill="#D6C7BD" />
<rect x="48" y="1" width="1" height="1" fill="#D6C7BD" />
<rect x="49" y="1" width="1" height="1" fill="#D6C7BD" />
<rect x="50" y="1" width="1" height="1" fill="#D6C7BD" />
<rect x="2" y="2" width="1" height="1" fill="#D6C7BD" />
<rect x="3" y="2" width="1" height="1" fill="#D6C7BD" />
<rect x="4" y="2" width="1" height="1" fill="#D6C7BD" />
<rect x="5" y="2" width="1" height="1" fill="#D6C7BD" />
<rect x="6" y="2" width="1" height="1" fill="#D6C7BD" />
<rect x="7" y="2" width="1" height="1" fill="#D6C7BD" />
<rect x="8" y="2" width="1" height="1" fill="#D6C7BD" />
<rect x="9" y="2" width="1" height="1" fill="#D6C7BD" />
<rect x="10" y="2" width="1" height="1" fill="#D6C7BD" />
<rect x="11" y="2" width="1" height="1" fill="#D6C7BD" />
<rect x="12" y="2" width="1" height="1" fill="#D6C7BD" />
<rect x="13" y="2" width="1" height="1" fill="#D6C7BD" />
<rect x="14" y="2" width="1" height="1" fill="#D6C7BD" />
<rect x="15" y="2" width="1" height="1" fill="#D6C7BD" />
<rect x="16" y="2" width="1" height="1" fill="#D6C7BD" />
<rect x="17" y="2" width="1" height="1" fill="#D6C7BD" />
<rect x="38" y="2" width="1" height="1" fill="#D6C7BD" />
<rect x="40" y="2" width="1" height="1" fill="#D6C7BD" />
<rect x="51" y="2" width="1" height="1" fill="#D6C7BD" />
<rect x="38" y="3" width="1" height="1" fill="#D6C7BD" />
<rect x="40" y="3" width="1" height="1" fill="#D6C7BD" />
<rect x="42" y="3" width="1" height="1" fill="#D6C7BD" />
<rect x="43" y="3" width="1" height="1" fill="#D6C7BD" />
<rect x="45" y="3" width="1" height="1" fill="#D6C7BD" />
<rect x="46" y="3" width="1" height="1" fill="#D6C7BD" />
<rect x="48" y="3" width="1" height="1" fill="#D6C7BD" />
<rect x="49" y="3" width="1" height="1" fill="#D6C7BD" />
<rect x="51" y="3" width="1" height="1" fill="#D6C7BD" />
<rect x="2" y="4" width="1" height="1" fill="#D6C7BD" />
<rect x="3" y="4" width="1" height="1" fill="#D6C7BD" />
<rect x="4" y="4" width="1" height="1" fill="#D6C7BD" />
<rect x="5" y="4" width="1" height="1" fill="#D6C7BD" />
<rect x="6" y="4" width="1" height="1" fill="#D6C7BD" />
<rect x="7" y="4" width="1" height="1" fill="#D6C7BD" />
<rect x="8" y="4" width="1" height="1" fill="#D6C7BD" />
<rect x="9" y="4" width="1" height="1" fill="#D6C7BD" />
<rect x="10" y="4" width="1" height="1" fill="#D6C7BD" />
<rect x="11" y="4" width="1" height="1" fill="#D6C7BD" />
<rect x="12" y="4" width="1" height="1" fill="#D6C7BD" />
<rect x="13" y="4" width="1" height="1" fill="#D6C7BD" />
<rect x="14" y="4" width="1" height="1" fill="#D6C7BD" />
<rect x="15" y="4" width="1" height="1" fill="#D6C7BD" />
<rect x="16" y="4" width="1" height="1" fill="#D6C7BD" />
<rect x="17" y="4" width="1" height="1" fill="#D6C7BD" />
<rect x="38" y="4" width="1" height="1" fill="#D6C7BD" />
<rect x="40" y="4" width="1" height="1" fill="#D6C7BD" />
<rect x="42" y="4" width="1" height="1" fill="#D6C7BD" />
<rect x="43" y="4" width="1" height="1" fill="#D6C7BD" />
<rect x="45" y="4" width="1" height="1" fill="#D6C7BD" />
<rect x="46" y="4" width="1" height="1" fill="#D6C7BD" />
<rect x="48" y="4" width="1" height="1" fill="#D6C7BD" />
<rect x="49" y="4" width="1" height="1" fill="#D6C7BD" />
<rect x="51" y="4" width="1" height="1" fill="#D6C7BD" />
<rect x="2" y="5" width="1" height="1" fill="#D6C7BD" />
<rect x="3" y="5" width="1" height="1" fill="#D6C7BD" />
<rect x="12" y="5" width="1" height="1" fill="#D6C7BD" />
<rect x="13" y="5" width="1" height="1" fill="#D6C7BD" />
<rect x="17" y="5" width="1" height="1" fill="#D6C7BD" />
<rect x="23" y="5" width="1" height="1" fill="#D6C7BD" />
<rect x="24" y="5" width="1" height="1" fill="#D6C7BD" />
<rect x="25" y="5" width="1" height="1" fill="#D6C7BD" />
<rect x="26" y="5" width="1" height="1" fill="#D6C7BD" />
<rect x="27" y="5" width="1" height="1" fill="#D6C7BD" />
<rect x="28" y="5" width="1" height="1" fill="#D6C7BD" />
<rect x="29" y="5" width="1" height="1" fill="#D6C7BD" />
<rect x="30" y="5" width="1" height="1" fill="#D6C7BD" />
<rect x="31" y="5" width="1" height="1" fill="#D6C7BD" />
<rect x="32" y="5" width="1" height="1" fill="#D6C7BD" />
<rect x="38" y="5" width="1" height="1" fill="#D6C7BD" />
<rect x="40" y="5" width="1" height="1" fill="#D6C7BD" />
<rect x="51" y="5" width="1" height="1" fill="#D6C7BD" />
<rect x="2" y="6" width="1" height="1" fill="#D6C7BD" />
<rect x="5" y="6" width="1" height="1" fill="#D6C7BD" />
<rect x="6" y="6" width="1" height="1" fill="#D6C7BD" />
<rect x="13" y="6" width="1" height="1" fill="#D6C7BD" />
<rect x="15" y="6" width="1" height="1" fill="#D6C7BD" />
<rect x="17" y="6" width="1" height="1" fill="#D6C7BD" />
<rect x="22" y="6" width="1" height="1" fill="#D6C7BD" />
<rect x="23" y="6" width="1" height="1" fill="#D6C7BD" />
<rect x="24" y="6" width="1" height="1" fill="#D6C7BD" />
<rect x="25" y="6" width="1" height="1" fill="#D6C7BD" />
<rect x="26" y="6" width="1" height="1" fill="#D6C7BD" />
<rect x="27" y="6" width="1" height="1" fill="#D6C7BD" />
<rect x="28" y="6" width="1" height="1" fill="#D6C7BD" />
<rect x="29" y="6" width="1" height="1" fill="#D6C7BD" />
<rect x="30" y="6" width="1" height="1" fill="#D6C7BD" />
<rect x="31" y="6" width="1" height="1" fill="#D6C7BD" />
<rect x="32" y="6" width="1" height="1" fill="#D6C7BD" />
<rect x="33" y="6" width="1" height="1" fill="#D6C7BD" />
<rect x="38" y="6" width="1" height="1" fill="#D6C7BD" />
<rect x="40" y="6" width="1" height="1" fill="#D6C7BD" />
<rect x="42" y="6" width="1" height="1" fill="#D6C7BD" />
<rect x="43" y="6" width="1" height="1" fill="#D6C7BD" />
<rect x="45" y="6" width="1" height="1" fill="#D6C7BD" />
<rect x="46" y="6" width="1" height="1" fill="#D6C7BD" />
<rect x="48" y="6" width="1" height="1" fill="#D6C7BD" />
<rect x="49" y="6" width="1" height="1" fill="#D6C7BD" />
<rect x="51" y="6" width="1" height="1" fill="#D6C7BD" />
<rect x="2" y="7" width="1" height="1" fill="#D6C7BD" />
<rect x="4" y="7" width="1" height="1" fill="#D6C7BD" />
<rect x="13" y="7" width="1" height="1" fill="#D6C7BD" />
<rect x="17" y="7" width="1" height="1" fill="#D6C7BD" />
<rect x="21" y="7" width="1" height="1" fill="#D6C7BD" />
<rect x="22" y="7" width="1" height="1" fill="#D6C7BD" />
<rect x="23" y="7" width="1" height="1" fill="#D6C7BD" />
<rect x="24" y="7" width="1" height="1" fill="#D6C7BD" />
<rect x="25" y="7" width="1" height="1" fill="#D6C7BD" />
<rect x="26" y="7" width="1" height="1" fill="#D6C7BD" />
<rect x="27" y="7" width="1" height="1" fill="#D6C7BD" />
<rect x="28" y="7" width="1" height="1" fill="#D6C7BD" />
<rect x="29" y="7" width="1" height="1" fill="#D6C7BD" />
<rect x="30" y="7" width="1" height="1" fill="#D6C7BD" />
<rect x="31" y="7" width="1" height="1" fill="#D6C7BD" />
<rect x="32" y="7" width="1" height="1" fill="#D6C7BD" />
<rect x="33" y="7" width="1" height="1" fill="#D6C7BD" />
<rect x="34" y="7" width="1" height="1" fill="#D6C7BD" />
<rect x="38" y="7" width="1" height="1" fill="#D6C7BD" />
<rect x="40" y="7" width="1" height="1" fill="#D6C7BD" />
<rect x="42" y="7" width="1" height="1" fill="#D6C7BD" />
<rect x="43" y="7" width="1" height="1" fill="#D6C7BD" />
<rect x="45" y="7" width="1" height="1" fill="#D6C7BD" />
<rect x="46" y="7" width="1" height="1" fill="#D6C7BD" />
<rect x="48" y="7" width="1" height="1" fill="#D6C7BD" />
<rect x="49" y="7" width="1" height="1" fill="#D6C7BD" />
<rect x="51" y="7" width="1" height="1" fill="#D6C7BD" />
<rect x="2" y="8" width="1" height="1" fill="#D6C7BD" />
<rect x="13" y="8" width="1" height="1" fill="#D6C7BD" />
<rect x="15" y="8" width="1" height="1" fill="#D6C7BD" />
<rect x="17" y="8" width="1" height="1" fill="#D6C7BD" />
<rect x="21" y="8" width="1" height="1" fill="#D6C7BD" />
<rect x="22" y="8" width="1" height="1" fill="#D6C7BD" />
<rect x="23" y="8" width="1" height="1" fill="#D6C7BD" />
<rect x="25" y="8" width="1" height="1" fill="#D6C7BD" />
<rect x="26" y="8" width="1" height="1" fill="#D6C7BD" />
<rect x="27" y="8" width="1" height="1" fill="#D6C7BD" />
<rect x="28" y="8" width="1" height="1" fill="#D6C7BD" />
<rect x="29" y="8" width="1" height="1" fill="#D6C7BD" />
<rect x="31" y="8" width="1" height="1" fill="#D6C7BD" />
<rect x="33" y="8" width="1" height="1" fill="#D6C7BD" />
<rect x="34" y="8" width="1" height="1" fill="#D6C7BD" />
<rect x="38" y="8" width="1" height="1" fill="#D6C7BD" />
<rect x="40" y="8" width="1" height="1" fill="#D6C7BD" />
<rect x="51" y="8" width="1" height="1" fill="#D6C7BD" />
<rect x="2" y="9" width="1" height="1" fill="#D6C7BD" />
<rect x="13" y="9" width="1" height="1" fill="#D6C7BD" />
<rect x="17" y="9" width="1" height="1" fill="#D6C7BD" />
<rect x="21" y="9" width="1" height="1" fill="#D6C7BD" />
<rect x="22" y="9" width="1" height="1" fill="#D6C7BD" />
<rect x="26" y="9" width="1" height="1" fill="#D6C7BD" />
<rect x="29" y="9" width="1" height="1" fill="#D6C7BD" />
<rect x="30" y="9" width="1" height="1" fill="#D6C7BD" />
<rect x="31" y="9" width="1" height="1" fill="#D6C7BD" />
<rect x="32" y="9" width="1" height="1" fill="#D6C7BD" />
<rect x="33" y="9" width="1" height="1" fill="#D6C7BD" />
<rect x="34" y="9" width="1" height="1" fill="#D6C7BD" />
<rect x="38" y="9" width="1" height="1" fill="#D6C7BD" />
<rect x="40" y="9" width="1" height="1" fill="#D6C7BD" />
<rect x="42" y="9" width="1" height="1" fill="#D6C7BD" />
<rect x="43" y="9" width="1" height="1" fill="#D6C7BD" />
<rect x="45" y="9" width="1" height="1" fill="#D6C7BD" />
<rect x="46" y="9" width="1" height="1" fill="#D6C7BD" />
<rect x="48" y="9" width="1" height="1" fill="#D6C7BD" />
<rect x="49" y="9" width="1" height="1" fill="#D6C7BD" />
<rect x="51" y="9" width="1" height="1" fill="#D6C7BD" />
<rect x="2" y="10" width="1" height="1" fill="#D6C7BD" />
<rect x="13" y="10" width="1" height="1" fill="#D6C7BD" />
<rect x="15" y="10" width="1" height="1" fill="#D6C7BD" />
<rect x="17" y="10" width="1" height="1" fill="#D6C7BD" />
<rect x="21" y="10" width="1" height="1" fill="#D6C7BD" />
<rect x="22" y="10" width="1" height="1" fill="#D6C7BD" />
<rect x="23" y="10" width="1" height="1" fill="#D6C7BD" />
<rect x="25" y="10" width="1" height="1" fill="#D6C7BD" />
<rect x="26" y="10" width="1" height="1" fill="#D6C7BD" />
<rect x="27" y="10" width="1" height="1" fill="#D6C7BD" />
<rect x="28" y="10" width="1" height="1" fill="#D6C7BD" />
<rect x="29" y="10" width="1" height="1" fill="#D6C7BD" />
<rect x="31" y="10" width="1" height="1" fill="#D6C7BD" />
<rect x="33" y="10" width="1" height="1" fill="#D6C7BD" />
<rect x="34" y="10" width="1" height="1" fill="#D6C7BD" />
<rect x="38" y="10" width="1" height="1" fill="#D6C7BD" />
<rect x="40" y="10" width="1" height="1" fill="#D6C7BD" />
<rect x="42" y="10" width="1" height="1" fill="#D6C7BD" />
<rect x="43" y="10" width="1" height="1" fill="#D6C7BD" />
<rect x="45" y="10" width="1" height="1" fill="#D6C7BD" />
<rect x="46" y="10" width="1" height="1" fill="#D6C7BD" />
<rect x="48" y="10" width="1" height="1" fill="#D6C7BD" />
<rect x="49" y="10" width="1" height="1" fill="#D6C7BD" />
<rect x="51" y="10" width="1" height="1" fill="#D6C7BD" />
<rect x="2" y="11" width="1" height="1" fill="#D6C7BD" />
<rect x="13" y="11" width="1" height="1" fill="#D6C7BD" />
<rect x="15" y="11" width="1" height="1" fill="#D6C7BD" />
<rect x="17" y="11" width="1" height="1" fill="#D6C7BD" />
<rect x="21" y="11" width="1" height="1" fill="#D6C7BD" />
<rect x="22" y="11" width="1" height="1" fill="#D6C7BD" />
<rect x="23" y="11" width="1" height="1" fill="#D6C7BD" />
<rect x="24" y="11" width="1" height="1" fill="#D6C7BD" />
<rect x="25" y="11" width="1" height="1" fill="#D6C7BD" />
<rect x="26" y="11" width="1" height="1" fill="#D6C7BD" />
<rect x="27" y="11" width="1" height="1" fill="#D6C7BD" />
<rect x="28" y="11" width="1" height="1" fill="#D6C7BD" />
<rect x="29" y="11" width="1" height="1" fill="#D6C7BD" />
<rect x="30" y="11" width="1" height="1" fill="#D6C7BD" />
<rect x="31" y="11" width="1" height="1" fill="#D6C7BD" />
<rect x="32" y="11" width="1" height="1" fill="#D6C7BD" />
<rect x="33" y="11" width="1" height="1" fill="#D6C7BD" />
<rect x="34" y="11" width="1" height="1" fill="#D6C7BD" />
<rect x="38" y="11" width="1" height="1" fill="#D6C7BD" />
<rect x="40" y="11" width="1" height="1" fill="#D6C7BD" />
<rect x="51" y="11" width="1" height="1" fill="#D6C7BD" />
<rect x="2" y="12" width="1" height="1" fill="#D6C7BD" />
<rect x="13" y="12" width="1" height="1" fill="#D6C7BD" />
<rect x="15" y="12" width="1" height="1" fill="#D6C7BD" />
<rect x="17" y="12" width="1" height="1" fill="#D6C7BD" />
<rect x="22" y="12" width="1" height="1" fill="#D6C7BD" />
<rect x="23" y="12" width="1" height="1" fill="#D6C7BD" />
<rect x="24" y="12" width="1" height="1" fill="#D6C7BD" />
<rect x="25" y="12" width="1" height="1" fill="#D6C7BD" />
<rect x="26" y="12" width="1" height="1" fill="#D6C7BD" />
<rect x="29" y="12" width="1" height="1" fill="#D6C7BD" />
<rect x="30" y="12" width="1" height="1" fill="#D6C7BD" />
<rect x="31" y="12" width="1" height="1" fill="#D6C7BD" />
<rect x="32" y="12" width="1" height="1" fill="#D6C7BD" />
<rect x="33" y="12" width="1" height="1" fill="#D6C7BD" />
<rect x="38" y="12" width="1" height="1" fill="#D6C7BD" />
<rect x="40" y="12" width="1" height="1" fill="#D6C7BD" />
<rect x="51" y="12" width="1" height="1" fill="#D6C7BD" />
<rect x="2" y="13" width="1" height="1" fill="#D6C7BD" />
<rect x="3" y="13" width="1" height="1" fill="#D6C7BD" />
<rect x="12" y="13" width="1" height="1" fill="#D6C7BD" />
<rect x="13" y="13" width="1" height="1" fill="#D6C7BD" />
<rect x="17" y="13" width="1" height="1" fill="#D6C7BD" />
<rect x="23" y="13" width="1" height="1" fill="#D6C7BD" />
<rect x="24" y="13" width="1" height="1" fill="#D6C7BD" />
<rect x="25" y="13" width="1" height="1" fill="#D6C7BD" />
<rect x="30" y="13" width="1" height="1" fill="#D6C7BD" />
<rect x="31" y="13" width="1" height="1" fill="#D6C7BD" />
<rect x="32" y="13" width="1" height="1" fill="#D6C7BD" />
<rect x="38" y="13" width="1" height="1" fill="#D6C7BD" />
<rect x="40" y="13" width="1" height="1" fill="#D6C7BD" />
<rect x="42" y="13" width="1" height="1" fill="#D6C7BD" />
<rect x="43" y="13" width="1" height="1" fill="#D6C7BD" />
<rect x="44" y="13" width="1" height="1" fill="#D6C7BD" />
<rect x="45" y="13" width="1" height="1" fill="#D6C7BD" />
<rect x="46" y="13" width="1" height="1" fill="#D6C7BD" />
<rect x="47" y="13" width="1" height="1" fill="#D6C7BD" />
<rect x="48" y="13" width="1" height="1" fill="#D6C7BD" />
<rect x="49" y="13" width="1" height="1" fill="#D6C7BD" />
<rect x="51" y="13" width="1" height="1" fill="#D6C7BD" />
<rect x="2" y="14" width="1" height="1" fill="#D6C7BD" />
<rect x="3" y="14" width="1" height="1" fill="#D6C7BD" />
<rect x="4" y="14" width="1" height="1" fill="#D6C7BD" />
<rect x="5" y="14" width="1" height="1" fill="#D6C7BD" />
<rect x="6" y="14" width="1" height="1" fill="#D6C7BD" />
<rect x="7" y="14" width="1" height="1" fill="#D6C7BD" />
<rect x="8" y="14" width="1" height="1" fill="#D6C7BD" />
<rect x="9" y="14" width="1" height="1" fill="#D6C7BD" />
<rect x="10" y="14" width="1" height="1" fill="#D6C7BD" />
<rect x="11" y="14" width="1" height="1" fill="#D6C7BD" />
<rect x="12" y="14" width="1" height="1" fill="#D6C7BD" />
<rect x="13" y="14" width="1" height="1" fill="#D6C7BD" />
<rect x="14" y="14" width="1" height="1" fill="#D6C7BD" />
<rect x="15" y="14" width="1" height="1" fill="#D6C7BD" />
<rect x="16" y="14" width="1" height="1" fill="#D6C7BD" />
<rect x="17" y="14" width="1" height="1" fill="#D6C7BD" />
<rect x="38" y="14" width="1" height="1" fill="#D6C7BD" />
<rect x="40" y="14" width="1" height="1" fill="#D6C7BD" />
<rect x="42" y="14" width="1" height="1" fill="#D6C7BD" />
<rect x="43" y="14" width="1" height="1" fill="#D6C7BD" />
<rect x="44" y="14" width="1" height="1" fill="#D6C7BD" />
<rect x="45" y="14" width="1" height="1" fill="#D6C7BD" />
<rect x="46" y="14" width="1" height="1" fill="#D6C7BD" />
<rect x="47" y="14" width="1" height="1" fill="#D6C7BD" />
<rect x="48" y="14" width="1" height="1" fill="#D6C7BD" />
<rect x="49" y="14" width="1" height="1" fill="#D6C7BD" />
<rect x="51" y="14" width="1" height="1" fill="#D6C7BD" />
<rect x="38" y="15" width="1" height="1" fill="#D6C7BD" />
<rect x="40" y="15" width="1" height="1" fill="#D6C7BD" />
<rect x="51" y="15" width="1" height="1" fill="#D6C7BD" />
<rect x="4" y="16" width="1" height="1" fill="#D6C7BD" />
<rect x="5" y="16" width="1" height="1" fill="#D6C7BD" />
<rect x="15" y="16" width="1" height="1" fill="#D6C7BD" />
<rect x="16" y="16" width="1" height="1" fill="#D6C7BD" />
<rect x="39" y="16" width="1" height="1" fill="#D6C7BD" />
<rect x="41" y="16" width="1" height="1" fill="#D6C7BD" />
<rect x="42" y="16" width="1" height="1" fill="#D6C7BD" />
<rect x="43" y="16" width="1" height="1" fill="#D6C7BD" />
<rect x="44" y="16" width="1" height="1" fill="#D6C7BD" />
<rect x="45" y="16" width="1" height="1" fill="#D6C7BD" />
<rect x="46" y="16" width="1" height="1" fill="#D6C7BD" />
<rect x="47" y="16" width="1" height="1" fill="#D6C7BD" />
<rect x="48" y="16" width="1" height="1" fill="#D6C7BD" />
<rect x="49" y="16" width="1" height="1" fill="#D6C7BD" />
<rect x="50" y="16" width="1" height="1" fill="#D6C7BD" />
</svg>