<?xml version="1.0" encoding="utf-8"?>
<!-- Generator: Adobe Illustrator 27.2.0, SVG Export Plug-In . SVG Version: 6.00 Build 0)  -->
<svg version="1.1" id="Layer_1" xmlns="http://www.w3.org/2000/svg" xmlns:xlink="http://www.w3.org/1999/xlink" x="0px" y="0px"
	 viewBox="0 0 394.61 84.96" style="enable-background:new 0 0 394.61 84.96;" xml:space="preserve">
<style type="text/css">
	.st0{fill:#FFFFFF;}
	.st1{fill:#D6C7BD;}
</style>
<g>
	<path d="M-542.89-426.65c-6.35-0.1-11.29-14.01-11.01-31c0.28-16.89,5.64-30.63,11.95-30.63l97.47,1.59
		c6.35,0.1,11.29,14.01,11.01,31c-0.28,16.89-5.64,30.63-11.95,30.63L-542.89-426.65z"/>
	<path d="M-541.95-488.03L-541.95-488.03l0.07,0l97.4,1.59c6.11,0.1,11.04,14.18,10.77,30.75c-0.27,16.75-5.52,30.38-11.7,30.38
		l-0.07,0l-97.4-1.59c-6.11-0.1-11.04-14.18-10.77-30.75C-553.38-474.4-548.13-488.03-541.95-488.03 M-541.95-488.53
		c-6.47,0-11.92,13.78-12.2,30.87c-0.28,17.16,4.76,31.15,11.26,31.26l97.4,1.59c0.02,0,0.05,0,0.07,0
		c6.47,0,11.92-13.78,12.2-30.87c0.28-17.16-4.76-31.15-11.26-31.26l-97.4-1.59C-541.9-488.53-541.93-488.53-541.95-488.53
		L-541.95-488.53z"/>
</g>
<rect x="-577.85" y="-450.91" transform="matrix(0.9999 0.0163 -0.0163 0.9999 -7.3502 8.0977)" class="st0" width="157.76" height="10.78"/>
<rect x="-532.92" y="-423.52" transform="matrix(-0.7186 0.6955 -0.6955 -0.7186 -1137.3999 -375.9837)" class="st0" width="80.58" height="10.78"/>
<g>
	
		<rect x="-488.55" y="-428.71" transform="matrix(0.7186 -0.6955 0.6955 0.7186 161.0375 -446.2221)" width="35.45" height="13.26"/>
	<path d="M-462.7-438.82l8.87,9.17l-25.12,24.31l-8.87-9.17L-462.7-438.82 M-462.68-439.53l-25.84,25l9.57,9.89l25.84-25
		L-462.68-439.53L-462.68-439.53z"/>
</g>
<rect x="-577.45" y="-475.44" transform="matrix(0.9999 0.0163 -0.0163 0.9999 -7.7511 8.0879)" class="st0" width="157.76" height="10.78"/>
<g>
	<path class="st1" d="M141.81,13.37c0-1.01-0.58-1.58-1.58-1.58h-3.1V3.79h9.22c3.46,0,4.9,1.51,4.9,4.9v36.65
		c0,1.01,0.58,1.58,1.58,1.58h11.16c1.01,0,1.58-0.58,1.58-1.58v-3.1h8.57v7.78c0,3.46-1.44,4.9-4.9,4.9H146.7
		c-3.46,0-4.9-1.44-4.9-4.9V13.37z"/>
	<path class="st1" d="M196.74,17.33c11.23,0,20.16,7.99,20.16,19.23c0,11.31-8.93,19.23-20.16,19.23
		c-11.16,0-20.09-7.92-20.09-19.23C176.65,25.32,185.58,17.33,196.74,17.33z M196.74,48c5.98,0,10.95-4.61,10.95-11.45
		c0-6.77-4.97-11.45-10.95-11.45c-5.9,0-10.87,4.68-10.87,11.45C185.87,43.4,190.84,48,196.74,48z"/>
	<path class="st1" d="M237.78,17.33c8.5,0,11.31,5.18,11.31,5.18h0.14c0,0,0-0.43,0-0.94c0-1.66,1.15-3.38,4.03-3.38h8.5v7.78h-2.81
		c-0.94,0-1.58,0.5-1.58,1.44v25.27c0,12.6-9.79,17.35-19.37,17.35c-4.61,0-9.5-1.3-13.03-3.17l2.81-7.2c0,0,4.54,2.45,10.15,2.45
		c5.54,0,10.37-2.38,10.37-9v-1.73c0-0.86,0.07-1.94,0.07-1.94h-0.14c-2.16,3.1-5.33,4.75-10.22,4.75
		c-10.51,0-16.49-8.5-16.49-18.58C221.51,25.54,227.2,17.33,237.78,17.33z M248.51,35.69c0-8.35-4.18-10.58-9.14-10.58
		c-5.54,0-8.57,4.03-8.57,10.22c0,6.41,3.24,11.16,9.14,11.16C244.33,46.49,248.51,43.97,248.51,35.69z"/>
	<path class="st1" d="M291.85,2.93c15.05,0,26.43,11.45,26.43,26.07c0,15.05-11.38,26.79-26.43,26.79
		c-15.05,0-26.43-11.74-26.43-26.79C265.43,14.38,276.81,2.93,291.85,2.93z M291.85,47c9.22,0,16.63-7.78,16.63-18
		c0-9.79-7.42-17.28-16.63-17.28s-16.63,7.49-16.63,17.28C275.22,39.22,282.64,47,291.85,47z"/>
	<path class="st1" d="M326.77,27.55c0-1.08-0.58-1.58-1.58-1.58h-2.88v-7.78h8.71c3.38,0,4.82,1.51,4.82,4.82v16.92
		c0,4.46,1.15,7.49,5.69,7.49c6.62,0,10.3-5.83,10.3-12.38V18.19h9.14v27.43c0,1.01,0.58,1.58,1.58,1.58h2.88v7.7h-8.42
		c-3.17,0-4.82-1.51-4.82-4.1V49.8c0-0.86,0.07-1.66,0.07-1.66h-0.14c-1.73,3.82-6.34,7.63-12.67,7.63
		c-7.85,0-12.67-3.96-12.67-13.97V27.55z"/>
	<path class="st1" d="M372.99,25.47h-4.75v-7.27h4.97V8.19h8.93v10.01h8.35v7.27h-8.35V40.3c0,6.05,4.75,6.91,7.27,6.91
		c1.01,0,1.66-0.14,1.66-0.14v7.99c0,0-1.15,0.22-2.81,0.22c-5.11,0-15.27-1.51-15.27-13.83V25.47z"/>
</g>
<g>
	<path class="st1" d="M268.75,65.29c0-0.35-0.2-0.55-0.55-0.55h-1.08v-2.77h3.2c1.2,0,1.7,0.53,1.7,1.7v5.82h7.82v-5.82
		c0-1.17,0.53-1.7,1.7-1.7h3.2v2.77h-1.08c-0.35,0-0.55,0.2-0.55,0.55v14.42h-3.27v-7.45h-7.82v7.45h-3.27V65.29z"/>
	<path class="st1" d="M297.05,70.22c0-0.38-0.2-0.55-0.55-0.55h-1v-2.7h3.02c1.17,0,1.67,0.53,1.67,1.7v7.82
		c0,0.35,0.2,0.55,0.55,0.55h1v2.67h-3.02c-1.17,0-1.67-0.5-1.67-1.7V70.22z M297.2,61.97h2.75v2.92h-2.75V61.97z"/>
	<path class="st1" d="M313.6,65.22c0-0.38-0.2-0.55-0.55-0.55h-1v-2.7h3.02c1.17,0,1.7,0.28,1.7,1.45v8.05h0.95
		c0.4,0,0.92-0.08,1.2-0.47l2.6-4.02h3.52l-3.22,4.8c-0.55,0.8-0.95,1-0.95,1v0.05c0,0,0.45,0.17,0.9,1l1.45,2.75
		c0.2,0.38,0.45,0.47,1.05,0.47h0.85v2.67h-2.35c-1.08,0-1.5-0.17-2-1.1l-2.12-4c-0.25-0.45-0.78-0.47-1.17-0.47h-0.7v5.57h-3.17
		V65.22z"/>
	<path class="st1" d="M336.9,70.22c0-0.38-0.2-0.55-0.55-0.55h-1v-2.7h3.02c1.17,0,1.67,0.53,1.67,1.7v7.82
		c0,0.35,0.2,0.55,0.55,0.55h1v2.67h-3.02c-1.17,0-1.67-0.5-1.67-1.7V70.22z M337.05,61.97h2.75v2.92h-2.75V61.97z"/>
	<path class="st1" d="M353.55,70.22c0-0.38-0.2-0.55-0.55-0.55h-1v-2.7h2.92c1.12,0,1.67,0.53,1.67,1.42v0.38
		c0,0.27-0.05,0.55-0.05,0.55h0.05c0.55-1.08,1.92-2.65,4.5-2.65c2.82,0,4.45,1.47,4.45,4.85v4.97c0,0.35,0.2,0.55,0.55,0.55h1v2.67
		h-3.02c-1.2,0-1.7-0.5-1.7-1.7v-5.85c0-1.55-0.4-2.6-2-2.6c-1.7,0-2.97,1.07-3.42,2.6c-0.17,0.52-0.25,1.1-0.25,1.7v5.85h-3.15
		V70.22z"/>
	<path class="st1" d="M383.28,66.67c2.95,0,3.92,1.8,3.92,1.8h0.05c0,0,0-0.15,0-0.33c0-0.58,0.4-1.17,1.4-1.17h2.95v2.7h-0.97
		c-0.33,0-0.55,0.17-0.55,0.5v8.77c0,4.37-3.4,6.02-6.72,6.02c-1.6,0-3.3-0.45-4.52-1.1l0.98-2.5c0,0,1.57,0.85,3.52,0.85
		c1.92,0,3.6-0.82,3.6-3.12v-0.6c0-0.3,0.02-0.67,0.02-0.67h-0.05c-0.75,1.07-1.85,1.65-3.55,1.65c-3.65,0-5.72-2.95-5.72-6.45
		S379.6,66.67,383.28,66.67z M387,73.04c0-2.9-1.45-3.67-3.17-3.67c-1.92,0-2.97,1.4-2.97,3.55c0,2.22,1.12,3.88,3.17,3.88
		C385.55,76.79,387,75.92,387,73.04z"/>
</g>
<rect x="-585.36" y="-503.12" transform="matrix(-0.6955 -0.7186 0.7186 -0.6955 -566.4813 -1235.543)" class="st0" width="80.58" height="10.78"/>
<g>
	
		<rect x="-530.03" y="-510.79" transform="matrix(0.7186 -0.6955 0.6955 0.7186 195.6002 -502.7744)" width="13.26" height="35.45"/>
	<path d="M-530.97-510.05l24.31,25.12l-9.17,8.87l-24.31-25.12L-530.97-510.05 M-530.96-510.76l-9.89,9.57l25,25.84l9.89-9.57
		L-530.96-510.76L-530.96-510.76z"/>
</g>
<g>
	<g>
		<path class="st1" d="M122.99,23.16H23.77c-0.36-3.96-0.99-7.6-1.83-10.78h99.06C118.86,4.86,115.45,0,111.61,0H14.19
			c-0.15,0-0.29,0.02-0.44,0.03C13.6,0.01,13.44,0,13.28,0C7.28,0,2.42,13.91,2.42,31.07s4.86,31.07,10.85,31.07
			c0.17,0,0.33-0.01,0.5-0.04c0.14,0.01,0.28,0.04,0.42,0.04h40.23l14.45-14.45H22.44c0.72-3.24,1.23-6.88,1.49-10.78h99.23
			c0.14-1.89,0.21-3.85,0.21-5.85C123.38,28.34,123.24,25.69,122.99,23.16z"/>
	</g>
	<g>
		<path class="st1" d="M69.66,62.14h0.08L58.75,73.13l9.73,9.73L89.2,62.14h22.41c4.18,0,7.85-5.77,9.94-14.45H84.11L69.66,62.14z"
			/>
	</g>
</g>
</svg>
